<svg width="23" height="23" viewBox="0 0 23 23" fill="none" xmlns="http://www.w3.org/2000/svg">
<path d="M14.436 2.375C15.9194 2.77396 17.2719 3.55567 18.3581 4.64184C19.4442 5.72801 20.226 7.08051 20.6249 8.56388" stroke="#1A1A1A" stroke-width="1.5" stroke-linecap="round" stroke-linejoin="round"/>
<path d="M13.5305 5.75586C14.4203 5.99525 15.2317 6.46421 15.8832 7.11578C16.5348 7.76735 17.0038 8.57866 17.2431 9.46848" stroke="#1A1A1A" stroke-width="1.5" stroke-linecap="round" stroke-linejoin="round"/>
<path d="M7.115 11.6512C8.02238 13.5069 9.5263 15.0043 11.3859 15.9037C11.522 15.9682 11.6727 15.9961 11.8229 15.9846C11.9731 15.973 12.1178 15.9225 12.2425 15.8381L14.9812 14.0128C15.1022 13.932 15.2414 13.8827 15.3862 13.8693C15.5311 13.8558 15.677 13.8787 15.8107 13.9358L20.9339 16.1321C21.1079 16.206 21.2532 16.3344 21.3479 16.4981C21.4426 16.6617 21.4815 16.8517 21.4589 17.0394C21.2967 18.3064 20.6784 19.4708 19.7196 20.3148C18.7608 21.1587 17.5273 21.6243 16.25 21.6244C12.3049 21.6244 8.52139 20.0573 5.73179 17.2676C2.94218 14.478 1.375 10.6945 1.375 6.74943C1.37512 5.47222 1.84074 4.23884 2.68471 3.28021C3.52867 2.32157 4.6931 1.7034 5.96 1.54143C6.14771 1.5188 6.33769 1.55775 6.50134 1.65244C6.66499 1.74713 6.79345 1.89242 6.86738 2.06643L9.06537 7.19393C9.1219 7.32642 9.14485 7.47081 9.13218 7.61429C9.11951 7.75777 9.07162 7.8959 8.99275 8.01643L7.17275 10.7972C7.09015 10.9224 7.04141 11.0669 7.03129 11.2166C7.02117 11.3662 7.05001 11.516 7.115 11.6512V11.6512Z" stroke="#1A1A1A" stroke-width="1.5" stroke-linecap="round" stroke-linejoin="round"/>
</svg>
