<svg width="33" height="15" viewBox="0 0 33 15" fill="none" xmlns="http://www.w3.org/2000/svg">
<path fill-rule="evenodd" clip-rule="evenodd" d="M6.50757 2.04333C6.12986 2.50908 5.52552 2.87643 4.92118 2.82395C4.84564 2.19421 5.14151 1.52511 5.48775 1.11184C5.86546 0.632975 6.52645 0.291864 7.06155 0.265625C7.1245 0.921606 6.87899 1.56447 6.50757 2.04333ZM7.05445 2.94857C6.52204 2.91664 6.03624 3.11541 5.64384 3.27597C5.39133 3.3793 5.17749 3.46679 5.01481 3.46679C4.83225 3.46679 4.60959 3.37462 4.35958 3.27113C4.032 3.13552 3.65749 2.98049 3.26475 2.98793C2.36453 3.00105 1.52727 3.53239 1.06773 4.37861C0.123447 6.07104 0.822213 8.57688 1.73502 9.95444C2.18197 10.6367 2.71707 11.3845 3.42213 11.3582C3.73231 11.346 3.95544 11.2474 4.18636 11.1453C4.45221 11.0277 4.72838 10.9056 5.1596 10.9056C5.57587 10.9056 5.83997 11.0245 6.09348 11.1387C6.33453 11.2473 6.56602 11.3515 6.90966 11.3451C7.6399 11.332 8.09945 10.6629 8.54641 9.98068C9.02875 9.24847 9.24072 8.53388 9.27288 8.42543L9.27665 8.41289C9.27588 8.41208 9.26993 8.40924 9.25941 8.40423C9.09818 8.32731 7.86576 7.7394 7.85394 6.16287C7.84207 4.83961 8.83146 4.16917 8.9872 4.06363C8.99668 4.0572 9.00307 4.05287 9.00596 4.05062C8.37644 3.07976 7.39439 2.97481 7.05445 2.94857ZM12.1086 11.273V1.04622H15.7913C17.6924 1.04622 19.0207 2.41066 19.0207 4.40484C19.0207 6.39902 17.6672 7.77658 15.7409 7.77658H13.632V11.273H12.1086ZM13.6337 2.38445H15.3901C16.7121 2.38445 17.4675 3.11915 17.4675 4.41143C17.4675 5.70371 16.7121 6.44497 15.3838 6.44497H13.6337V2.38445ZM24.0505 10.0463C23.6476 10.8466 22.76 11.3517 21.8031 11.3517C20.3867 11.3517 19.3983 10.4727 19.3983 9.1476C19.3983 7.83564 20.3552 7.08126 22.1241 6.96974L24.0253 6.85167V6.28752C24.0253 5.45443 23.5028 5.0018 22.5711 5.0018C21.8031 5.0018 21.2428 5.41507 21.1295 6.04481H19.7571C19.8012 4.71973 20.9973 3.75544 22.6152 3.75544C24.3589 3.75544 25.4921 4.70661 25.4921 6.18257V11.273H24.0819V10.0463H24.0505ZM22.213 10.1381C21.4009 10.1381 20.8847 9.73142 20.8847 9.10824C20.8847 8.46538 21.382 8.09147 22.3326 8.03243L24.026 7.92091V8.49818C24.026 9.45591 23.2454 10.1381 22.213 10.1381ZM30.1713 11.6731C29.5607 13.4639 28.8619 14.0543 27.3763 14.0543C27.263 14.0543 26.8853 14.0412 26.7971 14.015V12.7883C26.8916 12.8014 27.1245 12.8145 27.2441 12.8145C27.9177 12.8145 28.2954 12.5193 28.5283 11.7518L28.6668 11.2992L26.0858 3.85383H27.6784L29.4726 9.89541H29.5041L31.2982 3.85383H32.8468L30.1713 11.6731Z" fill="white"/>
</svg>
