<svg width="11" height="11" viewBox="0 0 11 11" fill="none" xmlns="http://www.w3.org/2000/svg">
<path d="M8.70833 5.04102H2.29167C1.78541 5.04102 1.375 5.45142 1.375 5.95768V9.16602C1.375 9.67228 1.78541 10.0827 2.29167 10.0827H8.70833C9.21459 10.0827 9.625 9.67228 9.625 9.16602V5.95768C9.625 5.45142 9.21459 5.04102 8.70833 5.04102Z" stroke="white" stroke-width="0.916667" stroke-linecap="round" stroke-linejoin="round"/>
<path d="M3.20825 5.04102V3.20768C3.20825 2.59989 3.44969 2.017 3.87947 1.58723C4.30924 1.15746 4.89213 0.916016 5.49992 0.916016C6.10771 0.916016 6.6906 1.15746 7.12037 1.58723C7.55014 2.017 7.79159 2.59989 7.79159 3.20768V5.04102" stroke="white" stroke-width="0.916667" stroke-linecap="round" stroke-linejoin="round"/>
</svg>
