<svg width="31" height="19" viewBox="0 0 31 19" fill="none" xmlns="http://www.w3.org/2000/svg">
<path fill-rule="evenodd" clip-rule="evenodd" d="M21.5583 18.3935C26.5147 18.3935 30.5327 14.4233 30.5327 9.52585C30.5327 4.62838 26.5147 0.658203 21.5583 0.658203C19.3369 0.658203 17.3041 1.45566 15.7369 2.77664C14.1698 1.45566 12.137 0.658211 9.9156 0.658211C4.95916 0.658211 0.941162 4.62839 0.941162 9.52586C0.941162 14.4233 4.95916 18.3935 9.9156 18.3935C12.137 18.3935 14.1698 17.596 15.737 16.2751C17.3041 17.596 19.3369 18.3935 21.5583 18.3935Z" fill="#ED0006"/>
<path fill-rule="evenodd" clip-rule="evenodd" d="M15.7363 16.275C17.6658 14.6485 18.8893 12.2283 18.8893 9.52585C18.8893 6.82336 17.6658 4.40322 15.7363 2.77674C17.3035 1.4557 19.3364 0.658203 21.5578 0.658203C26.5142 0.658203 30.5322 4.62838 30.5322 9.52585C30.5322 14.4233 26.5142 18.3935 21.5578 18.3935C19.3364 18.3935 17.3035 17.596 15.7363 16.275Z" fill="#F9A000"/>
<path fill-rule="evenodd" clip-rule="evenodd" d="M15.737 16.2756C17.6665 14.6491 18.8899 12.2289 18.8899 9.52646C18.8899 6.82397 17.6665 4.40383 15.737 2.77734C13.8075 4.40383 12.584 6.82397 12.584 9.52646C12.584 12.2289 13.8075 14.6491 15.737 16.2756Z" fill="#FF5E00"/>
</svg>
